<mxfile host="app.diagrams.net" compressed="false" modified="2022-09-12T05:11:51.356Z" agent="5.0 (Windows NT 10.0; Win64; x64) AppleWebKit/537.36 (KHTML, like Gecko) Chrome/105.0.0.0 Safari/537.36" version="20.2.4" etag="-27Q_Q2gEkrIehciFzHl" type="device">
  <diagram id="86R6ZRfhnQo9sD8B5-7s" name="Page-1">
    <mxGraphModel dx="1658" dy="1053" grid="1" gridSize="10" guides="1" tooltips="1" connect="1" arrows="1" fold="1" page="1" pageScale="1" pageWidth="827" pageHeight="1169" background="#161923" math="0" shadow="0">
      <root>
        <mxCell id="0" />
        <mxCell id="1" parent="0" />
        <mxCell id="141" value="" style="rounded=0;whiteSpace=wrap;html=1;labelBackgroundColor=none;fontSize=14;fontColor=#BCBDD0;strokeColor=#bcbdd0;strokeWidth=2;fillColor=none;dashed=1;" parent="1" vertex="1">
          <mxGeometry x="280" y="400" width="770" height="640" as="geometry" />
        </mxCell>
        <mxCell id="173" style="edgeStyle=none;rounded=0;jumpStyle=arc;jumpSize=22;html=1;exitX=1;exitY=0.5;exitDx=0;exitDy=0;entryX=0.25;entryY=1;entryDx=0;entryDy=0;strokeWidth=3;strokeColor=#BCBDD0;" parent="1" source="92" target="171" edge="1">
          <mxGeometry relative="1" as="geometry">
            <Array as="points">
              <mxPoint x="880" y="639" />
              <mxPoint x="880" y="669" />
            </Array>
          </mxGeometry>
        </mxCell>
        <mxCell id="92" value="Gain" style="rounded=0;whiteSpace=wrap;html=1;fontFamily=Helvetica;fontSize=14;fontColor=#BCBDD0;strokeColor=#BCBDD0;strokeWidth=3;fillColor=none;" parent="1" vertex="1">
          <mxGeometry x="640" y="600" width="120" height="80" as="geometry" />
        </mxCell>
        <mxCell id="93" value="&lt;font style=&quot;font-size: 14px&quot;&gt;Focus&lt;br style=&quot;font-size: 14px&quot;&gt;&lt;/font&gt;" style="rounded=0;whiteSpace=wrap;html=1;fontColor=#BCBDD0;labelBackgroundColor=none;fillColor=none;strokeColor=#bcbdd0;strokeWidth=3;fontSize=14;" parent="1" vertex="1">
          <mxGeometry x="640" y="760" width="120" height="80" as="geometry" />
        </mxCell>
        <mxCell id="179" style="edgeStyle=none;rounded=0;jumpStyle=arc;jumpSize=22;html=1;exitX=0.25;exitY=1;exitDx=0;exitDy=0;entryX=0;entryY=0.25;entryDx=0;entryDy=0;strokeColor=#BCBDD0;strokeWidth=3;" parent="1" source="94" target="92" edge="1">
          <mxGeometry relative="1" as="geometry">
            <Array as="points">
              <mxPoint x="590" y="620" />
            </Array>
          </mxGeometry>
        </mxCell>
        <mxCell id="94" value="Sampler" style="rounded=0;whiteSpace=wrap;html=1;fontFamily=Helvetica;fontSize=14;fontColor=#BCBDD0;strokeColor=#BCBDD0;strokeWidth=3;fillColor=none;" parent="1" vertex="1">
          <mxGeometry x="560" y="438.74" width="120" height="80" as="geometry" />
        </mxCell>
        <mxCell id="95" value="Memory" style="rounded=0;whiteSpace=wrap;html=1;fontFamily=Helvetica;fontSize=14;fontColor=#BCBDD0;strokeColor=#BCBDD0;strokeWidth=3;fillColor=none;" parent="1" vertex="1">
          <mxGeometry x="320.32000000000005" y="680" width="120" height="80" as="geometry" />
        </mxCell>
        <mxCell id="111" value="&lt;span style=&quot;font-size: 14px;&quot;&gt;SYS_TIME&lt;/span&gt;" style="text;html=1;strokeColor=none;fillColor=none;align=center;verticalAlign=middle;whiteSpace=wrap;rounded=0;labelBackgroundColor=none;fontSize=14;fontColor=#BCBDD0;fontStyle=2" parent="1" vertex="1">
          <mxGeometry x="160" y="438.74" width="80" height="40" as="geometry" />
        </mxCell>
        <mxCell id="112" value="" style="endArrow=classic;html=1;rounded=0;fontSize=14;fontColor=#BCBDD0;strokeColor=#bcbdd0;strokeWidth=3;exitX=1;exitY=0.5;exitDx=0;exitDy=0;entryX=0;entryY=0.25;entryDx=0;entryDy=0;" parent="1" source="111" target="94" edge="1">
          <mxGeometry width="50" height="50" relative="1" as="geometry">
            <mxPoint x="260" y="658.74" as="sourcePoint" />
            <mxPoint x="270" y="388.74" as="targetPoint" />
          </mxGeometry>
        </mxCell>
        <mxCell id="113" value="&lt;span style=&quot;font-size: 14px&quot;&gt;CYCLE&lt;/span&gt;" style="text;html=1;strokeColor=none;fillColor=none;align=center;verticalAlign=middle;whiteSpace=wrap;rounded=0;labelBackgroundColor=none;fontSize=14;fontColor=#BCBDD0;fontStyle=2" parent="1" vertex="1">
          <mxGeometry x="180" y="458.74" width="59.5" height="40" as="geometry" />
        </mxCell>
        <mxCell id="119" value="" style="endArrow=classic;html=1;rounded=0;fontSize=14;fontColor=#BCBDD0;entryX=0;entryY=0.5;entryDx=0;entryDy=0;strokeColor=#bcbdd0;strokeWidth=3;exitX=1;exitY=0.5;exitDx=0;exitDy=0;" parent="1" source="113" target="94" edge="1">
          <mxGeometry width="50" height="50" relative="1" as="geometry">
            <mxPoint x="259.5000000000002" y="318.74" as="sourcePoint" />
            <mxPoint x="570" y="318.74" as="targetPoint" />
          </mxGeometry>
        </mxCell>
        <mxCell id="120" value="" style="shape=flexArrow;endArrow=classic;html=1;rounded=0;labelBackgroundColor=default;fontFamily=Helvetica;fontSize=14;fontColor=#BCBDD0;strokeColor=#BCBDD0;strokeWidth=3;jumpStyle=arc;entryX=0;entryY=0.5;entryDx=0;entryDy=0;fillColor=#BCBDD0;exitX=1;exitY=0.5;exitDx=0;exitDy=0;" parent="1" source="129" target="95" edge="1">
          <mxGeometry width="50" height="50" relative="1" as="geometry">
            <mxPoint x="380" y="448.74" as="sourcePoint" />
            <mxPoint x="320.32000000000005" y="558.74" as="targetPoint" />
          </mxGeometry>
        </mxCell>
        <mxCell id="129" value="&lt;i style=&quot;font-size: 14px;&quot;&gt;CPU_BUS&lt;/i&gt;" style="text;html=1;strokeColor=none;fillColor=none;align=center;verticalAlign=middle;whiteSpace=wrap;rounded=0;labelBackgroundColor=none;fontSize=14;fontColor=#BCBDD0;" parent="1" vertex="1">
          <mxGeometry x="160" y="700" width="79.5" height="40" as="geometry" />
        </mxCell>
        <mxCell id="145" value="CLK" style="text;html=1;strokeColor=none;fillColor=none;align=center;verticalAlign=middle;whiteSpace=wrap;rounded=0;labelBackgroundColor=none;fontSize=14;fontColor=#BCBDD0;fontStyle=2" parent="1" vertex="1">
          <mxGeometry x="280" y="351.26" width="60" height="20" as="geometry" />
        </mxCell>
        <mxCell id="146" value="" style="endArrow=classic;html=1;rounded=0;fontSize=14;fontColor=#BCBDD0;strokeColor=#bcbdd0;strokeWidth=3;entryX=0.093;entryY=-0.003;entryDx=0;entryDy=0;exitX=0.5;exitY=1;exitDx=0;exitDy=0;entryPerimeter=0;" parent="1" source="145" edge="1">
          <mxGeometry width="50" height="50" relative="1" as="geometry">
            <mxPoint x="370" y="641.26" as="sourcePoint" />
            <mxPoint x="309.52" y="400" as="targetPoint" />
          </mxGeometry>
        </mxCell>
        <mxCell id="155" value="&lt;span style=&quot;font-size: 14px&quot;&gt;FREQ_DIV&lt;/span&gt;" style="text;html=1;strokeColor=none;fillColor=none;align=center;verticalAlign=middle;whiteSpace=wrap;rounded=0;labelBackgroundColor=none;fontSize=14;fontColor=#BCBDD0;fontStyle=2" parent="1" vertex="1">
          <mxGeometry x="160" y="478.74" width="80" height="40" as="geometry" />
        </mxCell>
        <mxCell id="156" value="" style="endArrow=classic;html=1;rounded=0;fontSize=14;fontColor=#BCBDD0;entryX=0;entryY=0.75;entryDx=0;entryDy=0;strokeColor=#bcbdd0;strokeWidth=3;exitX=1;exitY=0.5;exitDx=0;exitDy=0;" parent="1" source="155" target="94" edge="1">
          <mxGeometry width="50" height="50" relative="1" as="geometry">
            <mxPoint x="249.5" y="488.74" as="sourcePoint" />
            <mxPoint x="570" y="488.74" as="targetPoint" />
          </mxGeometry>
        </mxCell>
        <mxCell id="161" value="&lt;i style=&quot;font-size: 14px&quot;&gt;DUTY/PHASE&lt;/i&gt;" style="text;html=1;strokeColor=none;fillColor=none;align=center;verticalAlign=middle;whiteSpace=wrap;rounded=0;labelBackgroundColor=none;fontSize=14;fontColor=#BCBDD0;" parent="1" vertex="1">
          <mxGeometry x="1080" y="655" width="90" height="28.74" as="geometry" />
        </mxCell>
        <mxCell id="166" value="&lt;i style=&quot;font-size: 14px&quot;&gt;IDX&lt;/i&gt;" style="text;html=1;strokeColor=none;fillColor=none;align=center;verticalAlign=middle;whiteSpace=wrap;rounded=0;labelBackgroundColor=none;fontSize=14;fontColor=#BCBDD0;" parent="1" vertex="1">
          <mxGeometry x="1080" y="464.37" width="30.32" height="28.74" as="geometry" />
        </mxCell>
        <mxCell id="167" value="" style="shape=flexArrow;endArrow=classic;html=1;rounded=0;labelBackgroundColor=default;fontFamily=Helvetica;fontSize=14;fontColor=#BCBDD0;strokeColor=#BCBDD0;strokeWidth=1;jumpStyle=arc;entryX=0;entryY=0.75;entryDx=0;entryDy=0;fillColor=#BCBDD0;exitX=1;exitY=0.5;exitDx=0;exitDy=0;startArrow=block;endSize=6;" parent="1" source="95" target="93" edge="1">
          <mxGeometry width="50" height="50" relative="1" as="geometry">
            <mxPoint x="450.32000000000016" y="568.74" as="sourcePoint" />
            <mxPoint x="600" y="528.74" as="targetPoint" />
            <Array as="points">
              <mxPoint x="480" y="720" />
              <mxPoint x="480" y="820" />
            </Array>
          </mxGeometry>
        </mxCell>
        <mxCell id="171" value="MUX" style="shape=trapezoid;perimeter=trapezoidPerimeter;whiteSpace=wrap;html=1;fixedSize=1;rounded=0;fontFamily=Helvetica;fontSize=14;fontColor=#BCBDD0;strokeColor=#BCBDD0;strokeWidth=3;fillColor=none;rotation=90;size=20;" parent="1" vertex="1">
          <mxGeometry x="850" y="687.5" width="205" height="65" as="geometry" />
        </mxCell>
        <mxCell id="172" value="" style="shape=flexArrow;endArrow=classic;html=1;rounded=0;labelBackgroundColor=default;fontFamily=Helvetica;fontSize=14;fontColor=#BCBDD0;strokeColor=#BCBDD0;strokeWidth=1;jumpStyle=arc;entryX=0;entryY=0.75;entryDx=0;entryDy=0;fillColor=#BCBDD0;startArrow=block;endSize=6;" parent="1" target="92" edge="1">
          <mxGeometry width="50" height="50" relative="1" as="geometry">
            <mxPoint x="440" y="720" as="sourcePoint" />
            <mxPoint x="559.04" y="789.5" as="targetPoint" />
            <Array as="points">
              <mxPoint x="480" y="720" />
              <mxPoint x="480" y="660" />
            </Array>
          </mxGeometry>
        </mxCell>
        <mxCell id="174" value="&lt;i style=&quot;font-size: 14px&quot;&gt;DUTY/PHASE/&lt;br&gt;START/DONE&lt;/i&gt;" style="text;html=1;strokeColor=none;fillColor=none;align=center;verticalAlign=middle;whiteSpace=wrap;rounded=0;labelBackgroundColor=none;fontSize=14;fontColor=#BCBDD0;" parent="1" vertex="1">
          <mxGeometry x="770" y="601.26" width="100" height="28.74" as="geometry" />
        </mxCell>
        <mxCell id="175" style="edgeStyle=none;rounded=0;jumpStyle=arc;jumpSize=22;html=1;exitX=1;exitY=0.5;exitDx=0;exitDy=0;entryX=0.75;entryY=1;entryDx=0;entryDy=0;strokeWidth=3;strokeColor=#BCBDD0;" parent="1" source="93" target="171" edge="1">
          <mxGeometry relative="1" as="geometry">
            <mxPoint x="690" y="648.74" as="sourcePoint" />
            <mxPoint x="929.9999999999998" y="698.75" as="targetPoint" />
            <Array as="points">
              <mxPoint x="880" y="800" />
              <mxPoint x="880" y="771" />
            </Array>
          </mxGeometry>
        </mxCell>
        <mxCell id="176" value="&lt;i style=&quot;font-size: 14px&quot;&gt;DUTY/PHASE/&lt;br&gt;START/DONE&lt;/i&gt;" style="text;html=1;strokeColor=none;fillColor=none;align=center;verticalAlign=middle;whiteSpace=wrap;rounded=0;labelBackgroundColor=none;fontSize=14;fontColor=#BCBDD0;" parent="1" vertex="1">
          <mxGeometry x="770" y="811.26" width="100" height="28.74" as="geometry" />
        </mxCell>
        <mxCell id="187" value="IDX" style="text;html=1;strokeColor=none;fillColor=none;align=center;verticalAlign=middle;whiteSpace=wrap;rounded=0;labelBackgroundColor=none;fontSize=14;fontColor=#BCBDD0;fontStyle=2" parent="1" vertex="1">
          <mxGeometry x="550" y="560" width="40" height="20" as="geometry" />
        </mxCell>
        <mxCell id="189" value="gain_port" style="text;html=1;strokeColor=none;fillColor=none;align=center;verticalAlign=middle;whiteSpace=wrap;rounded=0;labelBackgroundColor=none;fontSize=14;fontColor=#BCBDD0;fontStyle=2" parent="1" vertex="1">
          <mxGeometry x="480" y="630" width="70" height="20" as="geometry" />
        </mxCell>
        <mxCell id="190" value="focus_port" style="text;html=1;strokeColor=none;fillColor=none;align=center;verticalAlign=middle;whiteSpace=wrap;rounded=0;labelBackgroundColor=none;fontSize=14;fontColor=#BCBDD0;fontStyle=2" parent="1" vertex="1">
          <mxGeometry x="480" y="828.74" width="80" height="20" as="geometry" />
        </mxCell>
        <mxCell id="191" style="edgeStyle=none;rounded=0;jumpStyle=arc;jumpSize=22;html=1;strokeColor=#BCBDD0;strokeWidth=3;exitX=0.75;exitY=0;exitDx=0;exitDy=0;entryX=0;entryY=0.5;entryDx=0;entryDy=0;" parent="1" source="171" target="194" edge="1">
          <mxGeometry relative="1" as="geometry">
            <mxPoint x="660" y="568.74" as="sourcePoint" />
            <mxPoint x="1080" y="771" as="targetPoint" />
          </mxGeometry>
        </mxCell>
        <mxCell id="193" style="edgeStyle=none;rounded=0;jumpStyle=arc;jumpSize=22;html=1;exitX=0.25;exitY=0;exitDx=0;exitDy=0;strokeColor=#BCBDD0;strokeWidth=3;entryX=0;entryY=0.5;entryDx=0;entryDy=0;" parent="1" source="171" target="161" edge="1">
          <mxGeometry relative="1" as="geometry">
            <mxPoint x="985.26" y="745.375" as="sourcePoint" />
            <mxPoint x="1080" y="670" as="targetPoint" />
          </mxGeometry>
        </mxCell>
        <mxCell id="194" value="&lt;i style=&quot;font-size: 14px&quot;&gt;START/DONE&lt;/i&gt;" style="text;html=1;strokeColor=none;fillColor=none;align=center;verticalAlign=middle;whiteSpace=wrap;rounded=0;labelBackgroundColor=none;fontSize=14;fontColor=#BCBDD0;" parent="1" vertex="1">
          <mxGeometry x="1080" y="757" width="90" height="28.74" as="geometry" />
        </mxCell>
        <mxCell id="195" style="edgeStyle=none;rounded=0;jumpStyle=arc;jumpSize=22;html=1;exitX=1;exitY=0.5;exitDx=0;exitDy=0;strokeColor=#BCBDD0;strokeWidth=3;entryX=0;entryY=0.5;entryDx=0;entryDy=0;" parent="1" source="94" target="166" edge="1">
          <mxGeometry relative="1" as="geometry">
            <mxPoint x="995" y="678.75" as="sourcePoint" />
            <mxPoint x="1090" y="679.3699999999999" as="targetPoint" />
          </mxGeometry>
        </mxCell>
        <mxCell id="196" style="edgeStyle=none;rounded=0;jumpStyle=arc;jumpSize=22;html=1;strokeColor=#BCBDD0;strokeWidth=3;entryX=0.25;entryY=1;entryDx=0;entryDy=0;" parent="1" target="93" edge="1">
          <mxGeometry relative="1" as="geometry">
            <mxPoint x="240" y="880" as="sourcePoint" />
            <mxPoint x="1090" y="781.3699999999999" as="targetPoint" />
            <Array as="points">
              <mxPoint x="670" y="880" />
            </Array>
          </mxGeometry>
        </mxCell>
        <mxCell id="197" style="edgeStyle=none;rounded=0;jumpStyle=arc;jumpSize=22;html=1;strokeColor=#BCBDD0;strokeWidth=3;entryX=0.75;entryY=1;entryDx=0;entryDy=0;" parent="1" target="93" edge="1">
          <mxGeometry relative="1" as="geometry">
            <mxPoint x="240" y="920" as="sourcePoint" />
            <mxPoint x="611.76" y="853.1200000000001" as="targetPoint" />
            <Array as="points">
              <mxPoint x="670" y="920" />
              <mxPoint x="730" y="920" />
            </Array>
          </mxGeometry>
        </mxCell>
        <mxCell id="198" style="edgeStyle=none;rounded=0;jumpStyle=arc;jumpSize=22;html=1;strokeColor=#BCBDD0;strokeWidth=3;entryX=1;entryY=0.5;entryDx=0;entryDy=0;exitX=1;exitY=0.5;exitDx=0;exitDy=0;" parent="1" source="202" target="171" edge="1">
          <mxGeometry relative="1" as="geometry">
            <mxPoint x="230" y="1020" as="sourcePoint" />
            <mxPoint x="650" y="960" as="targetPoint" />
            <Array as="points">
              <mxPoint x="953" y="1000" />
            </Array>
          </mxGeometry>
        </mxCell>
        <mxCell id="199" value="&lt;span style=&quot;font-size: 14px&quot;&gt;ULTRASOUND_CYCLE&lt;/span&gt;" style="text;html=1;strokeColor=none;fillColor=none;align=center;verticalAlign=middle;whiteSpace=wrap;rounded=0;labelBackgroundColor=none;fontSize=14;fontColor=#BCBDD0;fontStyle=2" parent="1" vertex="1">
          <mxGeometry x="80" y="860" width="160" height="40" as="geometry" />
        </mxCell>
        <mxCell id="201" value="&lt;span style=&quot;font-size: 14px&quot;&gt;SOUND_SPEED&lt;/span&gt;" style="text;html=1;strokeColor=none;fillColor=none;align=center;verticalAlign=middle;whiteSpace=wrap;rounded=0;labelBackgroundColor=none;fontSize=14;fontColor=#BCBDD0;fontStyle=2" parent="1" vertex="1">
          <mxGeometry x="120" y="900" width="120" height="40" as="geometry" />
        </mxCell>
        <mxCell id="202" value="GAIN_MODE" style="text;html=1;strokeColor=none;fillColor=none;align=center;verticalAlign=middle;whiteSpace=wrap;rounded=0;labelBackgroundColor=none;fontSize=14;fontColor=#BCBDD0;fontStyle=2" parent="1" vertex="1">
          <mxGeometry x="140.5" y="980" width="99.5" height="40" as="geometry" />
        </mxCell>
        <mxCell id="9o2mp1ougrs8MLgMzE7s-202" style="edgeStyle=none;rounded=0;jumpStyle=none;jumpSize=22;html=1;exitX=0.25;exitY=1;exitDx=0;exitDy=0;entryX=0;entryY=0.25;entryDx=0;entryDy=0;strokeColor=#BCBDD0;strokeWidth=3;" edge="1" parent="1" source="94" target="93">
          <mxGeometry relative="1" as="geometry">
            <mxPoint x="587.28" y="529.1399999999999" as="sourcePoint" />
            <mxPoint x="610" y="630" as="targetPoint" />
            <Array as="points">
              <mxPoint x="590" y="780" />
            </Array>
          </mxGeometry>
        </mxCell>
      </root>
    </mxGraphModel>
  </diagram>
</mxfile>
